<?xml version="1.0" encoding="UTF-8" standalone="no"?>
<!DOCTYPE svg PUBLIC "-//W3C//DTD SVG 1.1//EN" "http://www.w3.org/Graphics/SVG/1.1/DTD/svg11.dtd">
<!-- Created with Vectornator (http://vectornator.io/) -->
<svg height="100%" stroke-miterlimit="10" style="fill-rule:nonzero;clip-rule:evenodd;stroke-linecap:round;stroke-linejoin:round;" version="1.1" viewBox="0 0 250 250" width="100%" xml:space="preserve" xmlns="http://www.w3.org/2000/svg" xmlns:xlink="http://www.w3.org/1999/xlink">
<defs/>
<g id="Untitled">
<path d="M162.2 175.3L81.8 175.3C64.8 175.3 51 161.5 51 144.5L51 144.5C51 127.5 64.8 113.7 81.8 113.7L162.2 113.7C179.2 113.7 193 127.5 193 144.5L193 144.5C193 161.5 179.2 175.3 162.2 175.3Z" fill="#e6e7e8" fill-rule="evenodd" opacity="1" stroke="none"/>
<path d="M118.9 136.8L118.9 150.6L127.1 143.7L118.9 136.8Z" fill="#f2f5f9" fill-rule="nonzero" opacity="1" stroke="none"/>
<path d="M56.1 144.6C56.1 129.688 68.1883 117.6 83.1 117.6C98.0117 117.6 110.1 129.688 110.1 144.6C110.1 159.512 98.0117 171.6 83.1 171.6C68.1883 171.6 56.1 159.512 56.1 144.6Z" fill="#bbbdbf" fill-rule="evenodd" opacity="1" stroke="none"/>
<path d="M118.9 136.8L118.9 150.6L127.1 143.7L118.9 136.8Z" fill="#f05033" fill-rule="nonzero" opacity="1" stroke="none"/>
<path d="M95.2 77C95.2 62.0883 107.288 50 122.2 50C137.112 50 149.2 62.0883 149.2 77C149.2 91.9117 137.112 104 122.2 104C107.288 104 95.2 91.9117 95.2 77Z" fill="#bbbdbf" fill-rule="evenodd" opacity="1" stroke="none"/>
<path d="M122.2 77L67.6 50" fill="none" opacity="1" stroke="#f05033" stroke-linecap="butt" stroke-linejoin="miter" stroke-width="7"/>
<path d="M122.2 77L83.1 144.6" fill="none" opacity="1" stroke="#f05033" stroke-linecap="butt" stroke-linejoin="miter" stroke-width="7"/>
<path d="M72.6 144.5C72.6 138.701 77.301 134 83.1 134C88.899 134 93.6 138.701 93.6 144.5C93.6 150.299 88.899 155 83.1 155C77.301 155 72.6 150.299 72.6 144.5Z" fill="#f05033" fill-rule="evenodd" opacity="1" stroke="none"/>
<path d="M134.2 144.5C134.2 129.588 146.288 117.5 161.2 117.5C176.112 117.5 188.2 129.588 188.2 144.5C188.2 159.412 176.112 171.5 161.2 171.5C146.288 171.5 134.2 159.412 134.2 144.5Z" fill="#ffffff" fill-rule="evenodd" opacity="1" stroke="none"/>
<path d="M122.2 77L157.4 137.6" fill="none" opacity="1" stroke="#f05033" stroke-linecap="butt" stroke-linejoin="miter" stroke-width="7"/>
<path d="M111.5 76.7C111.5 70.901 116.201 66.2 122 66.2C127.799 66.2 132.5 70.901 132.5 76.7C132.5 82.499 127.799 87.2 122 87.2C116.201 87.2 111.5 82.499 111.5 76.7Z" fill="#f05033" fill-rule="evenodd" opacity="1" stroke="none"/>
<path d="M161.2 141C161.8 141 162.4 141.2 162.9 141.5C164 142.1 164.4 143.1 164.5 143.6C164.6 144.1 164.8 145.2 164.1 146.3C163.5 147.4 162.3 148.1 161 148.1C160.4 148.1 159.8 147.9 159.3 147.6C158.2 147 157.8 146 157.7 145.5C157.6 145 157.4 143.9 158.1 142.8C158.8 141.7 159.9 141 161.2 141M161.2 134C157.6 134 154 135.9 152.1 139.3C149.2 144.3 150.9 150.8 155.9 153.7C157.6 154.7 159.4 155.1 161.1 155.1C164.7 155.1 168.3 153.2 170.2 149.8C173.1 144.8 171.4 138.3 166.4 135.4C164.8 134.5 163 134 161.2 134L161.2 134Z" fill="#f05033" fill-rule="nonzero" opacity="1" stroke="none"/>
</g>
</svg>
